<mxfile host="65bd71144e">
    <diagram id="DYCWO599_bp_dcwJC6Y9" name="Page-1">
        <mxGraphModel dx="738" dy="419" grid="1" gridSize="10" guides="1" tooltips="1" connect="1" arrows="1" fold="1" page="1" pageScale="1" pageWidth="850" pageHeight="1100" math="0" shadow="0">
            <root>
                <mxCell id="0"/>
                <mxCell id="1" parent="0"/>
                <mxCell id="2" value="&lt;u&gt;Id_no&lt;/u&gt;" style="rounded=0;whiteSpace=wrap;html=1;" parent="1" vertex="1">
                    <mxGeometry x="276" y="106" width="100" height="40" as="geometry"/>
                </mxCell>
                <mxCell id="3" value="ART_OBJECT" style="text;html=1;strokeColor=none;fillColor=none;align=center;verticalAlign=middle;whiteSpace=wrap;rounded=0;" parent="1" vertex="1">
                    <mxGeometry x="286" y="76" width="60" height="30" as="geometry"/>
                </mxCell>
                <mxCell id="4" value="Artist" style="rounded=0;whiteSpace=wrap;html=1;" parent="1" vertex="1">
                    <mxGeometry x="376" y="106" width="100" height="40" as="geometry"/>
                </mxCell>
                <mxCell id="5" value="Origin" style="rounded=0;whiteSpace=wrap;html=1;" parent="1" vertex="1">
                    <mxGeometry x="676" y="106" width="100" height="40" as="geometry"/>
                </mxCell>
                <mxCell id="6" value="ArtDescription" style="rounded=0;whiteSpace=wrap;html=1;" parent="1" vertex="1">
                    <mxGeometry x="976" y="106" width="100" height="40" as="geometry"/>
                </mxCell>
                <mxCell id="7" value="Title" style="rounded=0;whiteSpace=wrap;html=1;" parent="1" vertex="1">
                    <mxGeometry x="576" y="106" width="100" height="40" as="geometry"/>
                </mxCell>
                <mxCell id="8" value="YearCreated" style="rounded=0;whiteSpace=wrap;html=1;" parent="1" vertex="1">
                    <mxGeometry x="476" y="106" width="100" height="40" as="geometry"/>
                </mxCell>
                <mxCell id="9" value="Epoch" style="rounded=0;whiteSpace=wrap;html=1;" parent="1" vertex="1">
                    <mxGeometry x="776" y="106" width="100" height="40" as="geometry"/>
                </mxCell>
                <mxCell id="10" style="edgeStyle=orthogonalEdgeStyle;rounded=0;orthogonalLoop=1;jettySize=auto;html=1;exitX=0.5;exitY=1;exitDx=0;exitDy=0;entryX=0.75;entryY=1;entryDx=0;entryDy=0;" parent="1" source="76" target="51" edge="1">
                    <mxGeometry relative="1" as="geometry">
                        <Array as="points">
                            <mxPoint x="726" y="600"/>
                            <mxPoint x="990" y="600"/>
                            <mxPoint x="990" y="966"/>
                            <mxPoint x="351" y="966"/>
                        </Array>
                    </mxGeometry>
                </mxCell>
                <mxCell id="11" value="&lt;u&gt;Id_no&lt;/u&gt;" style="rounded=0;whiteSpace=wrap;html=1;" parent="1" vertex="1">
                    <mxGeometry x="816" y="516" width="100" height="40" as="geometry"/>
                </mxCell>
                <mxCell id="12" value="&lt;u&gt;Id_no&lt;/u&gt;" style="rounded=0;whiteSpace=wrap;html=1;" parent="1" vertex="1">
                    <mxGeometry x="276" y="516" width="100" height="40" as="geometry"/>
                </mxCell>
                <mxCell id="13" value="&lt;u&gt;Id_no&lt;/u&gt;" style="rounded=0;whiteSpace=wrap;html=1;" parent="1" vertex="1">
                    <mxGeometry x="276" y="386" width="100" height="40" as="geometry"/>
                </mxCell>
                <mxCell id="14" value="&lt;u&gt;Id_no&lt;/u&gt;" style="rounded=0;whiteSpace=wrap;html=1;" parent="1" vertex="1">
                    <mxGeometry x="716" y="386" width="100" height="40" as="geometry"/>
                </mxCell>
                <mxCell id="15" value="&lt;u&gt;Id_no&lt;/u&gt;" style="rounded=0;whiteSpace=wrap;html=1;" parent="1" vertex="1">
                    <mxGeometry x="716" y="256" width="100" height="40" as="geometry"/>
                </mxCell>
                <mxCell id="16" value="&lt;u&gt;Id_no&lt;/u&gt;" style="rounded=0;whiteSpace=wrap;html=1;" parent="1" vertex="1">
                    <mxGeometry x="276" y="274" width="100" height="40" as="geometry"/>
                </mxCell>
                <mxCell id="17" value="PAINTING" style="text;html=1;strokeColor=none;fillColor=none;align=center;verticalAlign=middle;whiteSpace=wrap;rounded=0;" parent="1" vertex="1">
                    <mxGeometry x="276" y="244" width="60" height="30" as="geometry"/>
                </mxCell>
                <mxCell id="18" value="SCULPTURE" style="text;html=1;strokeColor=none;fillColor=none;align=center;verticalAlign=middle;whiteSpace=wrap;rounded=0;" parent="1" vertex="1">
                    <mxGeometry x="726" y="226" width="60" height="30" as="geometry"/>
                </mxCell>
                <mxCell id="19" value="STATUE" style="text;html=1;strokeColor=none;fillColor=none;align=center;verticalAlign=middle;whiteSpace=wrap;rounded=0;" parent="1" vertex="1">
                    <mxGeometry x="716" y="356" width="60" height="30" as="geometry"/>
                </mxCell>
                <mxCell id="20" value="OTHER" style="text;html=1;strokeColor=none;fillColor=none;align=center;verticalAlign=middle;whiteSpace=wrap;rounded=0;" parent="1" vertex="1">
                    <mxGeometry x="276" y="356" width="60" height="30" as="geometry"/>
                </mxCell>
                <mxCell id="21" value="BORROWED" style="text;html=1;strokeColor=none;fillColor=none;align=center;verticalAlign=middle;whiteSpace=wrap;rounded=0;" parent="1" vertex="1">
                    <mxGeometry x="826" y="486" width="60" height="30" as="geometry"/>
                </mxCell>
                <mxCell id="22" value="PERMANENT_COLLECTION" style="text;html=1;strokeColor=none;fillColor=none;align=center;verticalAlign=middle;whiteSpace=wrap;rounded=0;" parent="1" vertex="1">
                    <mxGeometry x="326" y="486" width="60" height="30" as="geometry"/>
                </mxCell>
                <mxCell id="23" value="Paint_type" style="rounded=0;whiteSpace=wrap;html=1;" parent="1" vertex="1">
                    <mxGeometry x="376" y="274" width="100" height="40" as="geometry"/>
                </mxCell>
                <mxCell id="24" value="Drawn_on" style="rounded=0;whiteSpace=wrap;html=1;" parent="1" vertex="1">
                    <mxGeometry x="476" y="274" width="100" height="40" as="geometry"/>
                </mxCell>
                <mxCell id="25" value="Style" style="rounded=0;whiteSpace=wrap;html=1;" parent="1" vertex="1">
                    <mxGeometry x="1116" y="256" width="100" height="40" as="geometry"/>
                </mxCell>
                <mxCell id="26" value="SculptWeight" style="rounded=0;whiteSpace=wrap;html=1;" parent="1" vertex="1">
                    <mxGeometry x="1016" y="256" width="100" height="40" as="geometry"/>
                </mxCell>
                <mxCell id="27" value="Material" style="rounded=0;whiteSpace=wrap;html=1;" parent="1" vertex="1">
                    <mxGeometry x="816" y="256" width="100" height="40" as="geometry"/>
                </mxCell>
                <mxCell id="28" value="Height" style="rounded=0;whiteSpace=wrap;html=1;" parent="1" vertex="1">
                    <mxGeometry x="916" y="256" width="100" height="40" as="geometry"/>
                </mxCell>
                <mxCell id="29" value="Style" style="rounded=0;whiteSpace=wrap;html=1;" parent="1" vertex="1">
                    <mxGeometry x="476" y="386" width="100" height="40" as="geometry"/>
                </mxCell>
                <mxCell id="30" value="ArtType" style="rounded=0;whiteSpace=wrap;html=1;" parent="1" vertex="1">
                    <mxGeometry x="376" y="386" width="100" height="40" as="geometry"/>
                </mxCell>
                <mxCell id="31" value="Cost" style="rounded=0;whiteSpace=wrap;html=1;" parent="1" vertex="1">
                    <mxGeometry x="576" y="516" width="100" height="40" as="geometry"/>
                </mxCell>
                <mxCell id="32" value="CollectionStatus" style="rounded=0;whiteSpace=wrap;html=1;" parent="1" vertex="1">
                    <mxGeometry x="476" y="516" width="100" height="40" as="geometry"/>
                </mxCell>
                <mxCell id="33" value="Date_acquired" style="rounded=0;whiteSpace=wrap;html=1;" parent="1" vertex="1">
                    <mxGeometry x="376" y="516" width="100" height="40" as="geometry"/>
                </mxCell>
                <mxCell id="34" value="Date_returned" style="rounded=0;whiteSpace=wrap;html=1;" parent="1" vertex="1">
                    <mxGeometry x="1116" y="516" width="100" height="40" as="geometry"/>
                </mxCell>
                <mxCell id="35" value="Date_borrowed" style="rounded=0;whiteSpace=wrap;html=1;" parent="1" vertex="1">
                    <mxGeometry x="1016" y="516" width="100" height="40" as="geometry"/>
                </mxCell>
                <mxCell id="36" style="edgeStyle=orthogonalEdgeStyle;rounded=0;orthogonalLoop=1;jettySize=auto;html=1;exitX=0.5;exitY=1;exitDx=0;exitDy=0;entryX=0;entryY=0.5;entryDx=0;entryDy=0;" parent="1" source="37" target="51" edge="1">
                    <mxGeometry relative="1" as="geometry">
                        <Array as="points">
                            <mxPoint x="966" y="580"/>
                            <mxPoint x="1020" y="580"/>
                            <mxPoint x="1020" y="710"/>
                            <mxPoint x="256" y="710"/>
                            <mxPoint x="256" y="926"/>
                        </Array>
                    </mxGeometry>
                </mxCell>
                <mxCell id="37" value="CollectionN" style="rounded=0;whiteSpace=wrap;html=1;" parent="1" vertex="1">
                    <mxGeometry x="916" y="516" width="100" height="40" as="geometry"/>
                </mxCell>
                <mxCell id="38" value="" style="endArrow=classic;html=1;rounded=0;exitX=0;exitY=0.5;exitDx=0;exitDy=0;entryX=0.883;entryY=0.999;entryDx=0;entryDy=0;entryPerimeter=0;" parent="1" source="11" target="2" edge="1">
                    <mxGeometry width="50" height="50" relative="1" as="geometry">
                        <mxPoint x="606" y="286" as="sourcePoint"/>
                        <mxPoint x="656" y="236" as="targetPoint"/>
                        <Array as="points">
                            <mxPoint x="790" y="536"/>
                            <mxPoint x="790" y="480"/>
                            <mxPoint x="680" y="480"/>
                            <mxPoint x="680" y="166"/>
                            <mxPoint x="365" y="166"/>
                        </Array>
                    </mxGeometry>
                </mxCell>
                <mxCell id="39" value="" style="endArrow=classic;html=1;rounded=0;exitX=0;exitY=0.5;exitDx=0;exitDy=0;entryX=0.5;entryY=1;entryDx=0;entryDy=0;" parent="1" source="14" target="2" edge="1">
                    <mxGeometry width="50" height="50" relative="1" as="geometry">
                        <mxPoint x="606" y="286" as="sourcePoint"/>
                        <mxPoint x="656" y="236" as="targetPoint"/>
                        <Array as="points">
                            <mxPoint x="686" y="406"/>
                            <mxPoint x="686" y="196"/>
                            <mxPoint x="326" y="196"/>
                        </Array>
                    </mxGeometry>
                </mxCell>
                <mxCell id="40" value="" style="endArrow=classic;html=1;rounded=0;exitX=0;exitY=0.5;exitDx=0;exitDy=0;entryX=0.319;entryY=0.984;entryDx=0;entryDy=0;entryPerimeter=0;" parent="1" source="15" target="2" edge="1">
                    <mxGeometry width="50" height="50" relative="1" as="geometry">
                        <mxPoint x="606" y="286" as="sourcePoint"/>
                        <mxPoint x="656" y="236" as="targetPoint"/>
                        <Array as="points">
                            <mxPoint x="706" y="276"/>
                            <mxPoint x="706" y="216"/>
                            <mxPoint x="309" y="216"/>
                        </Array>
                    </mxGeometry>
                </mxCell>
                <mxCell id="41" value="" style="endArrow=classic;html=1;rounded=0;exitX=0;exitY=0.5;exitDx=0;exitDy=0;entryX=0.097;entryY=1.008;entryDx=0;entryDy=0;entryPerimeter=0;" parent="1" source="12" target="2" edge="1">
                    <mxGeometry width="50" height="50" relative="1" as="geometry">
                        <mxPoint x="606" y="286" as="sourcePoint"/>
                        <mxPoint x="446" y="176" as="targetPoint"/>
                        <Array as="points">
                            <mxPoint x="236" y="536"/>
                            <mxPoint x="236" y="166"/>
                            <mxPoint x="286" y="166"/>
                        </Array>
                    </mxGeometry>
                </mxCell>
                <mxCell id="42" value="" style="endArrow=classic;html=1;rounded=0;exitX=0;exitY=0.5;exitDx=0;exitDy=0;entryX=0.195;entryY=1.005;entryDx=0;entryDy=0;entryPerimeter=0;" parent="1" source="13" target="2" edge="1">
                    <mxGeometry width="50" height="50" relative="1" as="geometry">
                        <mxPoint x="606" y="286" as="sourcePoint"/>
                        <mxPoint x="286" y="146" as="targetPoint"/>
                        <Array as="points">
                            <mxPoint x="256" y="406"/>
                            <mxPoint x="256" y="176"/>
                            <mxPoint x="296" y="176"/>
                        </Array>
                    </mxGeometry>
                </mxCell>
                <mxCell id="43" value="" style="endArrow=classic;html=1;rounded=0;exitX=0.75;exitY=0;exitDx=0;exitDy=0;entryX=0.75;entryY=1;entryDx=0;entryDy=0;" parent="1" source="16" target="2" edge="1">
                    <mxGeometry width="50" height="50" relative="1" as="geometry">
                        <mxPoint x="606" y="286" as="sourcePoint"/>
                        <mxPoint x="656" y="236" as="targetPoint"/>
                    </mxGeometry>
                </mxCell>
                <mxCell id="44" value="Style" style="rounded=0;whiteSpace=wrap;html=1;" parent="1" vertex="1">
                    <mxGeometry x="576" y="274" width="70" height="40" as="geometry"/>
                </mxCell>
                <mxCell id="45" value="Style" style="rounded=0;whiteSpace=wrap;html=1;" parent="1" vertex="1">
                    <mxGeometry x="1116" y="386" width="100" height="40" as="geometry"/>
                </mxCell>
                <mxCell id="46" value="StatWeight" style="rounded=0;whiteSpace=wrap;html=1;" parent="1" vertex="1">
                    <mxGeometry x="1016" y="386" width="100" height="40" as="geometry"/>
                </mxCell>
                <mxCell id="47" value="Material" style="rounded=0;whiteSpace=wrap;html=1;" parent="1" vertex="1">
                    <mxGeometry x="816" y="386" width="100" height="40" as="geometry"/>
                </mxCell>
                <mxCell id="48" value="Height" style="rounded=0;whiteSpace=wrap;html=1;" parent="1" vertex="1">
                    <mxGeometry x="916" y="386" width="100" height="40" as="geometry"/>
                </mxCell>
                <mxCell id="49" value="&lt;u&gt;ArtistName&lt;/u&gt;" style="rounded=0;whiteSpace=wrap;html=1;" parent="1" vertex="1">
                    <mxGeometry x="276" y="646" width="100" height="40" as="geometry"/>
                </mxCell>
                <mxCell id="50" value="&lt;u&gt;ExhibitionName&lt;/u&gt;" style="rounded=0;whiteSpace=wrap;html=1;" parent="1" vertex="1">
                    <mxGeometry x="276" y="776" width="100" height="40" as="geometry"/>
                </mxCell>
                <mxCell id="51" value="&lt;u&gt;CollectionsName&lt;/u&gt;" style="rounded=0;whiteSpace=wrap;html=1;" parent="1" vertex="1">
                    <mxGeometry x="276" y="906" width="100" height="40" as="geometry"/>
                </mxCell>
                <mxCell id="52" style="edgeStyle=orthogonalEdgeStyle;rounded=0;orthogonalLoop=1;jettySize=auto;html=1;entryX=0.5;entryY=1;entryDx=0;entryDy=0;exitX=0.5;exitY=1;exitDx=0;exitDy=0;" parent="1" source="70" target="51" edge="1">
                    <mxGeometry relative="1" as="geometry">
                        <Array as="points">
                            <mxPoint x="926" y="176"/>
                            <mxPoint x="1256" y="176"/>
                            <mxPoint x="1256" y="996"/>
                            <mxPoint x="326" y="996"/>
                        </Array>
                    </mxGeometry>
                </mxCell>
                <mxCell id="53" value="COLLECTIONS" style="text;html=1;strokeColor=none;fillColor=none;align=center;verticalAlign=middle;whiteSpace=wrap;rounded=0;" parent="1" vertex="1">
                    <mxGeometry x="286" y="876" width="60" height="30" as="geometry"/>
                </mxCell>
                <mxCell id="54" value="EXHIBITIONS" style="text;html=1;strokeColor=none;fillColor=none;align=center;verticalAlign=middle;whiteSpace=wrap;rounded=0;" parent="1" vertex="1">
                    <mxGeometry x="286" y="746" width="60" height="30" as="geometry"/>
                </mxCell>
                <mxCell id="55" value="ARTIST" style="text;html=1;strokeColor=none;fillColor=none;align=center;verticalAlign=middle;whiteSpace=wrap;rounded=0;" parent="1" vertex="1">
                    <mxGeometry x="276" y="606" width="60" height="30" as="geometry"/>
                </mxCell>
                <mxCell id="56" value="ArtistDescription" style="rounded=0;whiteSpace=wrap;html=1;" parent="1" vertex="1">
                    <mxGeometry x="876" y="646" width="100" height="40" as="geometry"/>
                </mxCell>
                <mxCell id="57" value="Main_style" style="rounded=0;whiteSpace=wrap;html=1;" parent="1" vertex="1">
                    <mxGeometry x="776" y="646" width="100" height="40" as="geometry"/>
                </mxCell>
                <mxCell id="58" value="Epoch" style="rounded=0;whiteSpace=wrap;html=1;" parent="1" vertex="1">
                    <mxGeometry x="676" y="646" width="100" height="40" as="geometry"/>
                </mxCell>
                <mxCell id="59" value="Country_of_origin" style="rounded=0;whiteSpace=wrap;html=1;" parent="1" vertex="1">
                    <mxGeometry x="576" y="646" width="110" height="40" as="geometry"/>
                </mxCell>
                <mxCell id="60" value="Date_died" style="rounded=0;whiteSpace=wrap;html=1;" parent="1" vertex="1">
                    <mxGeometry x="476" y="646" width="100" height="40" as="geometry"/>
                </mxCell>
                <mxCell id="61" value="DateBorn" style="rounded=0;whiteSpace=wrap;html=1;" parent="1" vertex="1">
                    <mxGeometry x="376" y="646" width="100" height="40" as="geometry"/>
                </mxCell>
                <mxCell id="62" value="Exb_End_date" style="rounded=0;whiteSpace=wrap;html=1;" parent="1" vertex="1">
                    <mxGeometry x="476" y="776" width="100" height="40" as="geometry"/>
                </mxCell>
                <mxCell id="63" value="Exb_Start_date" style="rounded=0;whiteSpace=wrap;html=1;" parent="1" vertex="1">
                    <mxGeometry x="376" y="776" width="100" height="40" as="geometry"/>
                </mxCell>
                <mxCell id="64" value="CollectionsType" style="rounded=0;whiteSpace=wrap;html=1;" parent="1" vertex="1">
                    <mxGeometry x="376" y="906" width="100" height="40" as="geometry"/>
                </mxCell>
                <mxCell id="65" value="CollectionsDescr" style="rounded=0;whiteSpace=wrap;html=1;" parent="1" vertex="1">
                    <mxGeometry x="776" y="906" width="100" height="40" as="geometry"/>
                </mxCell>
                <mxCell id="66" value="C_Address" style="rounded=0;whiteSpace=wrap;html=1;" parent="1" vertex="1">
                    <mxGeometry x="476" y="906" width="100" height="40" as="geometry"/>
                </mxCell>
                <mxCell id="67" value="Contact_person" style="rounded=0;whiteSpace=wrap;html=1;" parent="1" vertex="1">
                    <mxGeometry x="676" y="906" width="100" height="40" as="geometry"/>
                </mxCell>
                <mxCell id="68" value="Phone" style="rounded=0;whiteSpace=wrap;html=1;" parent="1" vertex="1">
                    <mxGeometry x="576" y="906" width="100" height="40" as="geometry"/>
                </mxCell>
                <mxCell id="69" style="edgeStyle=orthogonalEdgeStyle;rounded=0;orthogonalLoop=1;jettySize=auto;html=1;exitX=0.5;exitY=1;exitDx=0;exitDy=0;" parent="1" source="4" target="49" edge="1">
                    <mxGeometry relative="1" as="geometry">
                        <Array as="points">
                            <mxPoint x="426" y="236"/>
                            <mxPoint x="666" y="236"/>
                            <mxPoint x="666" y="466"/>
                            <mxPoint x="256" y="466"/>
                            <mxPoint x="256" y="666"/>
                        </Array>
                    </mxGeometry>
                </mxCell>
                <mxCell id="70" value="CollectionName" style="rounded=0;whiteSpace=wrap;html=1;" parent="1" vertex="1">
                    <mxGeometry x="876" y="106" width="100" height="40" as="geometry"/>
                </mxCell>
                <mxCell id="71" style="edgeStyle=orthogonalEdgeStyle;rounded=0;orthogonalLoop=1;jettySize=auto;html=1;exitX=0;exitY=0.5;exitDx=0;exitDy=0;entryX=0;entryY=0.5;entryDx=0;entryDy=0;" parent="1" source="72" target="2" edge="1">
                    <mxGeometry relative="1" as="geometry">
                        <Array as="points">
                            <mxPoint x="696" y="786"/>
                            <mxPoint x="696" y="726"/>
                            <mxPoint x="216" y="726"/>
                            <mxPoint x="216" y="126"/>
                        </Array>
                    </mxGeometry>
                </mxCell>
                <mxCell id="72" value="&lt;u&gt;Id_No&lt;/u&gt;" style="rounded=0;whiteSpace=wrap;html=1;" parent="1" vertex="1">
                    <mxGeometry x="736" y="766" width="100" height="40" as="geometry"/>
                </mxCell>
                <mxCell id="73" style="edgeStyle=orthogonalEdgeStyle;rounded=0;orthogonalLoop=1;jettySize=auto;html=1;entryX=0.5;entryY=1;entryDx=0;entryDy=0;" parent="1" source="74" target="50" edge="1">
                    <mxGeometry relative="1" as="geometry">
                        <Array as="points">
                            <mxPoint x="886" y="836"/>
                            <mxPoint x="326" y="836"/>
                        </Array>
                    </mxGeometry>
                </mxCell>
                <mxCell id="74" value="&lt;u&gt;ExhibitionName&lt;/u&gt;" style="rounded=0;whiteSpace=wrap;html=1;" parent="1" vertex="1">
                    <mxGeometry x="836" y="766" width="100" height="40" as="geometry"/>
                </mxCell>
                <mxCell id="75" value="DISPLAYED_IN" style="text;html=1;strokeColor=none;fillColor=none;align=center;verticalAlign=middle;whiteSpace=wrap;rounded=0;" parent="1" vertex="1">
                    <mxGeometry x="736" y="736" width="60" height="30" as="geometry"/>
                </mxCell>
                <mxCell id="76" value="PCollectionN" style="rounded=0;whiteSpace=wrap;html=1;" parent="1" vertex="1">
                    <mxGeometry x="676" y="516" width="100" height="40" as="geometry"/>
                </mxCell>
            </root>
        </mxGraphModel>
    </diagram>
</mxfile>